# xmcd
#
# Track frame offsets:
#	150
#	15743
#	34193
#	52352
#	70038
#
# Disc length: 1117 seconds
#
# Revision: 0
# Processed by: cddbd v1.5.1PL2 Copyright (c) Steve Scherf et al.
# Submitted via: EasyCDDAExtractor 9.0.0.1
#
DISCID=41045b05
DTITLE=Demencial Phillips - DEMO
DYEAR=2006
DGENRE=Electronic
TTITLE0=Como duele el amor
TTITLE1=You're only in my dreams
TTITLE2=Demencial
TTITLE3=Paradise
TTITLE4=No hay control
EXTD=
EXTT0=
EXTT1=
EXTT2=
EXTT3=
EXTT4=
PLAYORDER=
